<svg width="851" height="181" viewBox="0 0 851 181" fill="none" xmlns="http://www.w3.org/2000/svg">
<path d="M-0.00066154 177.897L47.6502 11.7297H79.6619L127.313 177.897H107.519L95.3012 136.355H31.7666L19.7928 177.897H-0.00066154ZM37.1426 117.784H90.1695L65.0001 29.5682H62.3121L37.1426 117.784ZM159.962 177.897V160.547H203.948V17.3501H162.406V0.00023746H223.008V160.547H263.817V177.897H159.962ZM391.768 142.464H410.828C410.014 152.728 408.222 160.629 405.452 166.168C402.683 171.544 398.121 175.29 391.768 177.408C385.414 179.363 376.291 180.341 364.399 180.341C352.67 180.341 343.058 179.445 335.564 177.653C328.233 175.698 322.531 172.358 318.459 167.634C314.386 162.909 311.535 156.23 309.906 147.596C308.277 138.962 307.462 127.884 307.462 114.362C307.462 100.841 308.277 89.8446 309.906 81.3733C311.535 72.7392 314.386 66.1413 318.459 61.5799C322.531 56.8555 328.233 53.5973 335.564 51.8053C342.895 49.8504 352.344 48.873 363.91 48.873C376.128 48.873 385.496 49.9319 392.012 52.0497C398.691 54.1675 403.334 58.1588 405.941 64.0235C408.71 69.8882 410.339 78.3595 410.828 89.4373H391.279C390.139 83.0839 388.591 78.2781 386.636 75.0199C384.681 71.7617 381.83 69.5624 378.083 68.4221C374.499 67.1188 369.368 66.4671 362.688 66.4671C352.914 66.4671 345.42 67.7704 340.207 70.377C335.157 72.8206 331.654 77.545 329.699 84.5501C327.907 91.3922 327.011 101.411 327.011 114.607C327.011 127.802 327.989 137.903 329.944 144.908C331.899 151.75 335.483 156.474 340.696 159.081C345.909 161.525 353.484 162.746 363.422 162.746C369.938 162.746 374.988 162.258 378.572 161.28C382.156 160.14 384.926 158.104 386.88 155.171C388.835 152.239 390.464 148.003 391.768 142.464ZM503.102 180.341C491.861 180.341 482.657 179.445 475.489 177.653C468.321 175.698 462.782 172.358 458.872 167.634C454.962 162.909 452.193 156.23 450.564 147.596C449.098 138.962 448.365 127.884 448.365 114.362C448.365 100.841 449.098 89.8446 450.564 81.3733C452.193 72.7392 454.962 66.1413 458.872 61.5799C462.782 56.8555 468.321 53.5973 475.489 51.8053C482.657 49.8504 491.861 48.873 503.102 48.873C514.343 48.873 523.466 49.8504 530.471 51.8053C537.639 53.5973 543.178 56.8555 547.088 61.5799C550.997 66.1413 553.685 72.7392 555.152 81.3733C556.781 89.8446 557.595 100.841 557.595 114.362C557.595 127.884 556.781 138.962 555.152 147.596C553.685 156.23 550.997 162.909 547.088 167.634C543.178 172.358 537.639 175.698 530.471 177.653C523.466 179.445 514.343 180.341 503.102 180.341ZM503.102 162.013C512.714 162.013 519.963 160.792 524.85 158.348C529.901 155.741 533.322 151.017 535.114 144.175C537.069 137.333 538.046 127.395 538.046 114.362C538.046 101.493 537.069 91.7181 535.114 85.0388C533.322 78.1966 529.901 73.5537 524.85 71.1101C519.963 68.5035 512.714 67.2002 503.102 67.2002C493.49 67.2002 486.16 68.5035 481.109 71.1101C476.059 73.5537 472.557 78.1966 470.602 85.0388C468.81 91.7181 467.914 101.493 467.914 114.362C467.914 127.395 468.81 137.333 470.602 144.175C472.557 151.017 476.059 155.741 481.109 158.348C486.16 160.792 493.49 162.013 503.102 162.013ZM638.873 177.897L590.733 51.3166H611.993L648.647 154.194H650.358L687.012 51.3166H708.272L660.132 177.897H638.873ZM828.159 144.908H847.708C845.916 154.52 843.391 161.932 840.133 167.145C837.038 172.195 832.313 175.698 825.96 177.653C819.606 179.445 810.728 180.341 799.324 180.341C787.921 180.341 778.553 179.445 771.222 177.653C763.891 175.698 758.19 172.358 754.117 167.634C750.044 162.909 747.193 156.23 745.564 147.596C744.098 138.962 743.365 127.884 743.365 114.362C743.365 100.841 744.098 89.8446 745.564 81.3733C747.03 72.7392 749.637 66.1413 753.384 61.5799C757.294 56.8555 762.67 53.5973 769.512 51.8053C776.354 49.8504 785.151 48.873 795.903 48.873C807.144 48.873 816.348 49.9319 823.516 52.0497C830.684 54.1675 836.223 57.9144 840.133 63.2904C844.206 68.6664 846.894 76.2417 848.197 86.0162C849.663 95.7908 850.315 108.416 850.152 123.893H761.937C762.262 134.319 763.403 142.301 765.358 147.84C767.475 153.216 771.059 156.963 776.11 159.081C781.323 161.036 788.817 162.013 798.591 162.013C805.107 162.013 810.239 161.606 813.986 160.792C817.733 159.814 820.665 158.104 822.783 155.66C824.901 153.053 826.693 149.469 828.159 144.908ZM762.181 106.298H831.336C831.01 95.5464 829.87 87.401 827.915 81.8621C825.96 76.1602 822.539 72.3319 817.651 70.377C812.927 68.2592 806.003 67.2002 796.881 67.2002C787.595 67.2002 780.508 68.2592 775.621 70.377C770.734 72.3319 767.313 76.1602 765.358 81.8621C763.566 87.401 762.507 95.5464 762.181 106.298Z" fill="black"/>
</svg>
