<svg width="124" height="28" viewBox="0 0 124 28" fill="none" xmlns="http://www.w3.org/2000/svg">
<ellipse cx="21.8259" cy="6.08584" rx="4.30334" ry="4.30334" transform="rotate(45 21.8259 6.08584)" fill="#242323"/>
<path d="M20.072 9.93854L14.0309 14.0309L18.1232 7.98981L19.0976 8.96417L20.072 9.93854Z" fill="#242323"/>
<ellipse cx="4.30334" cy="4.30334" rx="4.30334" ry="4.30334" transform="matrix(0.707107 0.707107 0.707107 -0.707107 0 21.8258)" fill="#242323"/>
<path d="M9.93854 20.072L14.0309 14.0309L7.98981 18.1232L8.96417 19.0976L9.93854 20.072Z" fill="#242323"/>
<ellipse cx="21.9759" cy="21.8258" rx="4.30334" ry="4.30334" transform="rotate(135 21.9759 21.8258)" fill="#242323"/>
<path d="M18.1232 20.072L14.0309 14.0309L20.072 18.1232L19.0976 19.0976L18.1232 20.072Z" fill="#242323"/>
<ellipse cx="4.30334" cy="4.30334" rx="4.30334" ry="4.30334" transform="matrix(-0.707107 0.707107 0.707107 0.707107 6.23596 0)" fill="#242323"/>
<path d="M7.9898 9.93854L14.0309 14.0309L9.93854 7.98981L8.96417 8.96417L7.9898 9.93854Z" fill="#242323"/>
<ellipse cx="2.15167" cy="2.15167" rx="2.15167" ry="2.15167" transform="matrix(-1 -8.74227e-08 -8.74228e-08 1 16.1295 6.86548)" fill="#242323"/>
<path d="M14.8577 10.7238L14.0309 14.0309L13.2041 10.7238H14.8577Z" fill="#242323"/>
<ellipse cx="13.9778" cy="19.0447" rx="2.15167" ry="2.15167" transform="rotate(180 13.9778 19.0447)" fill="#242323"/>
<path d="M14.8577 17.338L14.0309 14.0309L13.2041 17.338H14.8577Z" fill="#242323"/>
<ellipse cx="9.01715" cy="13.9778" rx="2.15167" ry="2.15167" transform="rotate(-90 9.01715 13.9778)" fill="#242323"/>
<path d="M10.7238 14.8577L14.0309 14.0309L10.7238 13.2041V14.8577Z" fill="#242323"/>
<ellipse cx="2.15167" cy="2.15167" rx="2.15167" ry="2.15167" transform="matrix(8.74227e-08 -1 -1 -8.74228e-08 21.1963 16.1295)" fill="#242323"/>
<path d="M17.338 14.8577L14.0309 14.0309L17.338 13.2041V14.8577Z" fill="#242323"/>
<path d="M43.504 22.288C41.76 22.288 40.256 21.976 38.992 21.352C37.728 20.728 36.76 19.784 36.088 18.52C35.416 17.256 35.08 15.672 35.08 13.768C35.08 11.832 35.416 10.24 36.088 8.992C36.76 7.728 37.728 6.792 38.992 6.184C40.256 5.56 41.76 5.248 43.504 5.248C45.28 5.248 46.792 5.56 48.04 6.184C49.304 6.792 50.272 7.728 50.944 8.992C51.616 10.24 51.952 11.832 51.952 13.768C51.952 15.672 51.616 17.256 50.944 18.52C50.272 19.784 49.304 20.728 48.04 21.352C46.792 21.976 45.28 22.288 43.504 22.288ZM43.504 19.36C44.288 19.36 44.976 19.248 45.568 19.024C46.16 18.8 46.656 18.464 47.056 18.016C47.456 17.568 47.76 17.024 47.968 16.384C48.176 15.728 48.28 14.984 48.28 14.152V13.408C48.28 12.56 48.176 11.808 47.968 11.152C47.76 10.496 47.456 9.952 47.056 9.52C46.656 9.072 46.16 8.736 45.568 8.512C44.976 8.288 44.288 8.176 43.504 8.176C42.736 8.176 42.056 8.288 41.464 8.512C40.872 8.736 40.376 9.072 39.976 9.52C39.576 9.952 39.272 10.496 39.064 11.152C38.872 11.808 38.776 12.56 38.776 13.408V14.152C38.776 14.984 38.872 15.728 39.064 16.384C39.272 17.024 39.576 17.568 39.976 18.016C40.376 18.464 40.872 18.8 41.464 19.024C42.056 19.248 42.736 19.36 43.504 19.36ZM53.3672 22V9.376H56.1272L56.3912 11.104H56.5592C56.8312 10.688 57.1512 10.328 57.5192 10.024C57.9032 9.72 58.3272 9.488 58.7912 9.328C59.2712 9.168 59.7832 9.088 60.3272 9.088C61.1272 9.088 61.8152 9.248 62.3912 9.568C62.9832 9.888 63.4392 10.4 63.7592 11.104H63.9272C64.1992 10.688 64.5272 10.328 64.9112 10.024C65.2952 9.72 65.7352 9.488 66.2312 9.328C66.7273 9.168 67.2552 9.088 67.8152 9.088C68.6152 9.088 69.3032 9.232 69.8793 9.52C70.4713 9.808 70.9353 10.28 71.2713 10.936C71.6073 11.576 71.7752 12.408 71.7752 13.432V22H68.4392V14.032C68.4392 13.632 68.3913 13.296 68.2953 13.024C68.2153 12.736 68.0953 12.512 67.9352 12.352C67.7752 12.176 67.5752 12.048 67.3352 11.968C67.0953 11.888 66.8393 11.848 66.5672 11.848C66.1192 11.848 65.7192 11.968 65.3672 12.208C65.0153 12.448 64.7353 12.776 64.5273 13.192C64.3352 13.608 64.2392 14.088 64.2392 14.632V22H60.9032V14.032C60.9032 13.632 60.8552 13.296 60.7592 13.024C60.6792 12.736 60.5592 12.512 60.3992 12.352C60.2392 12.176 60.0392 12.048 59.7992 11.968C59.5752 11.888 59.3192 11.848 59.0312 11.848C58.5992 11.848 58.1992 11.968 57.8312 12.208C57.4792 12.448 57.1992 12.776 56.9912 13.192C56.7992 13.608 56.7032 14.088 56.7032 14.632V22H53.3672ZM73.5422 22V9.376H76.3022L76.5662 11.104H76.7342C77.0222 10.688 77.3662 10.328 77.7662 10.024C78.1822 9.72 78.6462 9.488 79.1582 9.328C79.6702 9.168 80.2302 9.088 80.8382 9.088C81.6702 9.088 82.3982 9.24 83.0222 9.544C83.6462 9.848 84.1262 10.328 84.4622 10.984C84.8142 11.64 84.9902 12.496 84.9902 13.552V22H81.6542V14.08C81.6542 13.68 81.6062 13.344 81.5102 13.072C81.4142 12.784 81.2702 12.552 81.0782 12.376C80.9022 12.184 80.6782 12.048 80.4062 11.968C80.1342 11.888 79.8302 11.848 79.4942 11.848C78.9982 11.848 78.5502 11.968 78.1502 12.208C77.7502 12.448 77.4382 12.776 77.2142 13.192C76.9902 13.608 76.8782 14.088 76.8782 14.632V22H73.5422ZM86.7798 7.528V4.648H90.1158V7.528H86.7798ZM86.7798 22V9.376H90.1158V22H86.7798ZM91.9782 26.272V9.376H94.7142L95.0022 11.08H95.1702C95.5862 10.392 96.1302 9.888 96.8022 9.568C97.4742 9.248 98.2182 9.088 99.0342 9.088C100.09 9.088 100.994 9.32 101.746 9.784C102.514 10.248 103.098 10.968 103.498 11.944C103.914 12.92 104.122 14.176 104.122 15.712C104.122 17.2 103.914 18.432 103.498 19.408C103.082 20.384 102.498 21.112 101.746 21.592C101.01 22.056 100.146 22.288 99.1542 22.288C98.6102 22.288 98.1062 22.224 97.6422 22.096C97.1782 21.984 96.7622 21.8 96.3942 21.544C96.0262 21.288 95.7142 20.976 95.4582 20.608H95.3142V26.272H91.9782ZM98.0022 19.552C98.6742 19.552 99.2022 19.424 99.5862 19.168C99.9862 18.896 100.274 18.496 100.45 17.968C100.626 17.424 100.714 16.76 100.714 15.976V15.424C100.714 14.624 100.626 13.96 100.45 13.432C100.274 12.888 99.9862 12.488 99.5862 12.232C99.2022 11.96 98.6742 11.824 98.0022 11.824C97.3782 11.824 96.8662 11.968 96.4662 12.256C96.0662 12.544 95.7702 12.96 95.5782 13.504C95.3862 14.048 95.2902 14.704 95.2902 15.472V15.88C95.2902 16.44 95.3462 16.952 95.4582 17.416C95.5702 17.864 95.7302 18.248 95.9382 18.568C96.1622 18.888 96.4422 19.136 96.7782 19.312C97.1142 19.472 97.5222 19.552 98.0022 19.552ZM105.38 7.528V4.648H108.716V7.528H105.38ZM105.38 22V9.376H108.716V22H105.38ZM110.578 22V9.376H113.338L113.602 11.104H113.77C114.058 10.688 114.402 10.328 114.802 10.024C115.218 9.72 115.682 9.488 116.194 9.328C116.706 9.168 117.266 9.088 117.874 9.088C118.706 9.088 119.434 9.24 120.058 9.544C120.682 9.848 121.162 10.328 121.498 10.984C121.85 11.64 122.026 12.496 122.026 13.552V22H118.69V14.08C118.69 13.68 118.642 13.344 118.546 13.072C118.45 12.784 118.306 12.552 118.114 12.376C117.938 12.184 117.714 12.048 117.442 11.968C117.17 11.888 116.866 11.848 116.53 11.848C116.034 11.848 115.586 11.968 115.186 12.208C114.786 12.448 114.474 12.776 114.25 13.192C114.026 13.608 113.914 14.088 113.914 14.632V22H110.578Z" fill="#242323"/>
</svg>
