<svg width="75" height="75" viewBox="0 0 75 75" fill="none" xmlns="http://www.w3.org/2000/svg">
<rect width="75" height="75" rx="16" fill="#D9D9D9"/>
<ellipse cx="55.9764" cy="18.9352" rx="9.85371" ry="9.85371" transform="rotate(45 55.9764 18.9352)" fill="#242323"/>
<path d="M51.9605 27.7571L38.1277 37.1277L47.4983 23.2949L49.7294 25.526L51.9605 27.7571Z" fill="#242323"/>
<ellipse cx="9.85371" cy="9.85371" rx="9.85371" ry="9.85371" transform="matrix(0.707107 0.707107 0.707107 -0.707107 6 54.9764)" fill="#242323"/>
<path d="M28.7571 50.9605L38.1277 37.1277L24.2949 46.4983L26.526 48.7294L28.7571 50.9605Z" fill="#242323"/>
<ellipse cx="56.3202" cy="54.9764" rx="9.85371" ry="9.85371" transform="rotate(135 56.3202 54.9764)" fill="#242323"/>
<path d="M47.4983 50.9605L38.1277 37.1277L51.9605 46.4983L49.7294 48.7294L47.4983 50.9605Z" fill="#242323"/>
<ellipse cx="9.85371" cy="9.85371" rx="9.85371" ry="9.85371" transform="matrix(-0.707107 0.707107 0.707107 0.707107 20.279 5)" fill="#242323"/>
<path d="M24.2949 27.7571L38.1277 37.1277L28.7571 23.2949L26.526 25.526L24.2949 27.7571Z" fill="#242323"/>
<ellipse cx="4.92685" cy="4.92686" rx="4.92685" ry="4.92686" transform="matrix(-1 -8.7423e-08 -8.74226e-08 1 42.933 20.7205)" fill="#242323"/>
<path d="M40.0209 29.5551L38.1277 37.1277L36.2346 29.5551H40.0209Z" fill="#242323"/>
<ellipse cx="38.0062" cy="48.6081" rx="4.92685" ry="4.92685" transform="rotate(180 38.0062 48.6081)" fill="#242323"/>
<path d="M40.0208 44.7003L38.1277 37.1277L36.2346 44.7003H40.0208Z" fill="#242323"/>
<ellipse cx="26.6473" cy="37.0062" rx="4.92685" ry="4.92685" transform="rotate(-90 26.6473 37.0062)" fill="#242323"/>
<path d="M30.5551 39.0208L38.1277 37.1277L30.5551 35.2346V39.0208Z" fill="#242323"/>
<ellipse cx="4.92686" cy="4.92685" rx="4.92686" ry="4.92685" transform="matrix(8.74228e-08 -1 -1 -8.74228e-08 54.5349 41.933)" fill="#242323"/>
<path d="M45.7003 39.0209L38.1277 37.1277L45.7003 35.2346V39.0209Z" fill="#242323"/>
</svg>
