<svg width="75" height="75" viewBox="0 0 75 75" fill="none" xmlns="http://www.w3.org/2000/svg">
<path d="M1.89873 17.0886C1.89873 8.69947 8.69947 1.89873 17.0886 1.89873H57.9114C66.3005 1.89873 73.1013 8.69947 73.1013 17.0886V57.9114C73.1013 66.3005 66.3005 73.1013 57.9114 73.1013H17.0886C8.69947 73.1013 1.89873 66.3005 1.89873 57.9114V17.0886Z" fill="url(#paint0_linear_54_88)"/>
<path d="M71.2025 17.0886C71.2025 9.74811 65.2519 3.79747 57.9114 3.79747H17.0886C9.74811 3.79747 3.79747 9.74811 3.79747 17.0886V57.9114C3.79747 65.2519 9.74811 71.2025 17.0886 71.2025H57.9114C65.2519 71.2025 71.2025 65.2519 71.2025 57.9114V17.0886ZM75 57.9114C75 67.3492 67.3492 75 57.9114 75H17.0886C7.65083 75 1.98782e-07 67.3492 0 57.9114V17.0886C0 7.65083 7.65083 1.98782e-07 17.0886 0H57.9114C67.3492 0 75 7.65083 75 17.0886V57.9114Z" fill="url(#paint1_linear_54_88)"/>
<path d="M31.1305 47.1278C32.3905 49.8237 31.9083 53.1328 29.6823 55.3588C26.8396 58.2012 22.2303 58.2013 19.3876 55.3588C16.5449 52.5161 16.5451 47.9069 19.3876 45.0641C21.7138 42.7379 25.2223 42.3159 27.9783 43.7967L37.9744 37.025L31.1305 47.1278ZM47.9706 43.7967C50.7267 42.3157 54.235 42.7378 56.5613 45.0641C59.404 47.9068 59.404 52.516 56.5613 55.3588C53.7185 58.2011 49.1092 58.2014 46.2666 55.3588C44.0405 53.1327 43.5573 49.8229 44.8175 47.1269L37.9744 37.025L47.9706 43.7967ZM39.2511 42.1325C40.5841 42.6728 41.5243 43.9794 41.5244 45.5063C41.5244 47.5164 39.8947 49.1461 37.8845 49.1461C35.8745 49.1459 34.2456 47.5163 34.2456 45.5063C34.2456 43.9054 35.2791 42.5464 36.7154 42.0593L37.9744 37.025L39.2511 42.1325ZM29.4932 33.2962C31.0944 33.2962 32.4532 34.3303 32.9402 35.7669L37.9744 37.025L32.867 38.3017C32.3266 39.6347 31.02 40.575 29.4932 40.575C27.4832 40.5747 25.8543 38.9451 25.8543 36.9351C25.8545 34.9253 27.4834 33.2964 29.4932 33.2962ZM46.4557 33.2962C48.4657 33.2962 50.0953 34.9252 50.0956 36.9351C50.0956 38.9452 48.4658 40.575 46.4557 40.575C44.9288 40.5749 43.6222 39.6347 43.0819 38.3017L37.9744 37.025L43.0087 35.766C43.4958 34.3297 44.8548 33.2962 46.4557 33.2962ZM46.0135 18.4382C48.8562 15.5959 53.4645 15.5959 56.3072 18.4382C59.15 21.281 59.15 25.8901 56.3072 28.7329C54.0813 30.9588 50.7731 31.4411 48.0772 30.1811L37.9744 37.025L44.7461 27.0289C43.2653 24.2729 43.6873 20.7644 46.0135 18.4382ZM19.6416 18.4382C22.4844 15.5955 27.0936 15.5956 29.9363 18.4382C32.2624 20.7642 32.6832 24.272 31.2028 27.0279L37.9744 37.025L27.8707 30.1811C25.175 31.4404 21.8673 30.9586 19.6416 28.7329C16.799 25.8901 16.7989 21.2809 19.6416 18.4382ZM37.8845 24.9048C39.8945 24.9048 41.5241 26.5338 41.5244 28.5438C41.5244 30.0706 40.584 31.3772 39.2511 31.9175L37.9744 37.025L36.7163 31.9908C35.2796 31.5038 34.2456 30.145 34.2456 28.5438C34.2458 26.534 35.8747 24.905 37.8845 24.9048Z" fill="url(#paint2_linear_54_88)"/>
<defs>
<linearGradient id="paint0_linear_54_88" x1="37.5" y1="0" x2="37.5" y2="75" gradientUnits="userSpaceOnUse">
<stop offset="0.306667" stop-color="#232324"/>
<stop offset="1" stop-color="#403E4D"/>
</linearGradient>
<linearGradient id="paint1_linear_54_88" x1="18.5127" y1="9.01899" x2="61.2342" y2="81.1709" gradientUnits="userSpaceOnUse">
<stop stop-color="#A6ABE3"/>
<stop offset="0.326923" stop-color="#635BA6"/>
<stop offset="0.586538" stop-color="#8780BC"/>
<stop offset="1" stop-color="#5E577D"/>
</linearGradient>
<linearGradient id="paint2_linear_54_88" x1="37.5" y1="0" x2="37.5" y2="75" gradientUnits="userSpaceOnUse">
<stop offset="0.376298" stop-color="#96A7EB"/>
<stop offset="1" stop-color="#0B4E9F"/>
</linearGradient>
</defs>
</svg>
